/* XPM */
static char * gnu_small_trans_xpm[] = {
"64 64 178 2",
"  	c None",
". 	c #777777",
"+ 	c #2F2F2F",
"@ 	c #020202",
"# 	c #000000",
"$ 	c #060606",
"% 	c #343434",
"& 	c #7E7E7E",
"* 	c #AFAFAF",
"= 	c #959595",
"- 	c #7D7D7D",
"; 	c #3C3C3C",
"> 	c #181818",
", 	c #292929",
"' 	c #3B3B3B",
") 	c #050505",
"! 	c #303030",
"~ 	c #737373",
"{ 	c #727272",
"] 	c #989898",
"^ 	c #808080",
"/ 	c #131313",
"( 	c #070707",
"_ 	c #0D0D0D",
": 	c #010101",
"< 	c #2C2C2C",
"[ 	c #717171",
"} 	c #080808",
"| 	c #0C0C0C",
"1 	c #111111",
"2 	c #949494",
"3 	c #121212",
"4 	c #2A2A2A",
"5 	c #696969",
"6 	c #4B4B4B",
"7 	c #353535",
"8 	c #818181",
"9 	c #ACACAC",
"0 	c #ADADAD",
"a 	c #828282",
"b 	c #363636",
"c 	c #040404",
"d 	c #6B6B6B",
"e 	c #0F0F0F",
"f 	c #909090",
"g 	c #313131",
"h 	c #030303",
"i 	c #525252",
"j 	c #5C5C5C",
"k 	c #1D1D1D",
"l 	c #4F4F4F",
"m 	c #616161",
"n 	c #5E5E5E",
"o 	c #555555",
"p 	c #565656",
"q 	c #7A7A7A",
"r 	c #535353",
"s 	c #5A5A5A",
"t 	c #2B2B2B",
"u 	c #393939",
"v 	c #757575",
"w 	c #333333",
"x 	c #414141",
"y 	c #6E6E6E",
"z 	c #424242",
"A 	c #3E3E3E",
"B 	c #636363",
"C 	c #3A3A3A",
"D 	c #6C6C6C",
"E 	c #4D4D4D",
"F 	c #5F5F5F",
"G 	c #595959",
"H 	c #666666",
"I 	c #2D2D2D",
"J 	c #606060",
"K 	c #1F1F1F",
"L 	c #242424",
"M 	c #797979",
"N 	c #101010",
"O 	c #262626",
"P 	c #686868",
"Q 	c #090909",
"R 	c #464646",
"S 	c #8B8B8B",
"T 	c #6F6F6F",
"U 	c #474747",
"V 	c #373737",
"W 	c #919191",
"X 	c #161616",
"Y 	c #515151",
"Z 	c #646464",
"` 	c #4C4C4C",
" .	c #2E2E2E",
"..	c #212121",
"+.	c #1A1A1A",
"@.	c #5D5D5D",
"#.	c #191919",
"$.	c #4A4A4A",
"%.	c #707070",
"&.	c #0A0A0A",
"*.	c #141414",
"=.	c #898989",
"-.	c #575757",
";.	c #5B5B5B",
">.	c #6D6D6D",
",.	c #9B9B9B",
"'.	c #8F8F8F",
").	c #202020",
"!.	c #7B7B7B",
"~.	c #3F3F3F",
"{.	c #494949",
"].	c #858585",
"^.	c #656565",
"/.	c #676767",
"(.	c #505050",
"_.	c #878787",
":.	c #B1B1B1",
"<.	c #939393",
"[.	c #454545",
"}.	c #626262",
"|.	c #404040",
"1.	c #151515",
"2.	c #7C7C7C",
"3.	c #929292",
"4.	c #B0B0B0",
"5.	c #767676",
"6.	c #434343",
"7.	c #3D3D3D",
"8.	c #282828",
"9.	c #D7D7D7",
"0.	c #CFCFCF",
"a.	c #BEBEBE",
"b.	c #999999",
"c.	c #585858",
"d.	c #CDCDCD",
"e.	c #D9D9D9",
"f.	c #CECECE",
"g.	c #1E1E1E",
"h.	c #CBCBCB",
"i.	c #FDFDFD",
"j.	c #FFFFFF",
"k.	c #D2D2D2",
"l.	c #D1D1D1",
"m.	c #FBFBFB",
"n.	c #C8C8C8",
"o.	c #1C1C1C",
"p.	c #0B0B0B",
"q.	c #979797",
"r.	c #ECECEC",
"s.	c #F6F6F6",
"t.	c #E8E8E8",
"u.	c #383838",
"v.	c #E6E6E6",
"w.	c #4E4E4E",
"x.	c #9F9F9F",
"y.	c #9C9C9C",
"z.	c #8D8D8D",
"A.	c #1B1B1B",
"B.	c #545454",
"C.	c #0E0E0E",
"D.	c #484848",
"E.	c #171717",
"F.	c #8A8A8A",
"G.	c #252525",
"H.	c #888888",
"I.	c #272727",
"J.	c #787878",
"K.	c #838383",
"L.	c #232323",
"M.	c #6A6A6A",
"N.	c #A3A3A3",
"O.	c #A9A9A9",
"P.	c #AEAEAE",
"Q.	c #BFBFBF",
"R.	c #B5B5B5",
"S.	c #B6B6B6",
"T.	c #969696",
"U.	c #B2B2B2",
"                                                                                                                                ",
"                                                                                                                                ",
"                                                                                                                                ",
"                                                                                                                                ",
"                                                                                                                                ",
"                                                                                                                                ",
"                                                                                                                                ",
"                                                                                                                                ",
"          . + @ # # # $ % & *                                                                     = - ; > $ # # @ , -           ",
"        ' ) # # # # # # # ) ! ~                                                                 { ! ) # # # # # # # ) ; ]       ",
"    ^ / # # # # # # # ( _ $ : @ < [                                                         { < @ : } | ) # # # # # # # 1 ^     ",
"  2 3 # # # # # : 4 5       [ 6 3 @ 7 8               9                 0               a b c 1 6 [       d 4 : # # # # # e f   ",
"  g # # # # # h i                 j k ) , l m n o p &                     q r s n m l t $ k j                 i h # # # # # g   ",
"{ @ # # # # # u                       v p ; w x y                             y z g A p v                       ' # # # # # @ { ",
"l # # # # # # 5                                                                                                 B # # # # # # l ",
"C # # # # # # D                                                                                                 d # # # # # # C ",
"E # # # # # # F                                                                                                 G # # # # # # E ",
"H # # # # # # t                                         q -         & q                                         I # # # # # # J ",
"  K # # # # # @ p                               9 5 L ( @ @ 1 M M N h @ ( O P 0                               p @ # # # # # K   ",
"  - Q # # # # # @ R S                     T U D V : # # # # # o o # # # # # : u d U T                     W R @ # # # # # Q -   ",
"    . X # # # # # # $ 4 Y p P { Z Y `  .e t 5 + # : } ..I I +.J @.#.I < K } # # + Z  .e  .i Y Z y D j Y 4 } # # # # # # > q     ",
"        Y / : # # # # # # # # # # $ K $.%.U &.# *.D =.[ -.;.>.,.,.v J -.P '.D X # } U %.` ).$ # # # # # # # # # # @ *.i         ",
"            !.-.~.w  .! 7 {.@.%.- ].D < ) c K Y ^., c # # # # o o # # # # c 4 /.(.K c ) < y _.^ T ;.$.7 ! g w ~.-.-             ",
"                    :.<.M T @.[., K < z }.-.|.*.# # # # # # # o o # # # # # # : 1.x p G [., K < ~.s T 2.3.4.                    ",
"                    s 5.6.! 7.; C t 8.x 9.9.0.a.b.c.3 # # # # o o # # # # e -.= a.d.e.f.~.t t ' ' A g 6.v s                     ",
"                    w N x E g.: # # # : z h.i.j.j.i.k.z : # # o o # # : z l.i.j.j.m.n.6.: # # # : o.6 x e w                     ",
"                    5 } # p.7.l u X h # # | E q.f.r.s.t.u.# # o o # # u.v.s.r.f.b.` p.# # @ X u.Y 7.p.# } Z                     ",
"                    -.E h # # h k 6.(.w.6 A b V 6.B d <.x.p.# o o # p.y.z.d c.z 7 b ' x 6 E ~.A.c # # h B.n                     ",
"                    M w E | # # # # # h } C.C.C.C.Q h # $.$.# o o # D.{.# h _ C.C.C.C.| @ # # # # # N [. .5.                    ",
"                      R C.|.A A.+.A.g.g.+.| c # # # # # } d # o o # { &.# # # # # c | +.).).A.E.A.z D.C.U                       ",
"                        4 # X F.6.G.K ).I ~.U R + N # # # ;.Q o o &.j # # # _ g R U ~.+ ..).8.R H.X # t                         ",
"                          % u u.# # # # # # # : E.x [.| # ~.+.o o A.|.# | U z > : # # # # # # # u.u.u.                          ",
"                            =.Z : # # # # # # # # # k %.> t , o o I t X ~ K # # # # # # # # # : B ].                            ",
"                                j $ # # # # # # # # # N 5 G.+ o o + I.J.1.# # # # # # # # # ( j                                 ",
"                                  & O : # # # # # # # # 4 ;.7 o o 7 j , # # # # # # # # : O K.                                  ",
"                                      /.#.: # # # # # # @ %.g o o g y : # # # # # # # > H                                       ",
"                                          B o.: # # # # # U V o o V U # # # # # : +.m                                           ",
"                                              J o.: # # # G.I o o I G.# # # : L.P                                               ",
"                                                  P o.# # t ).o o g.I # # A.d                                                   ",
"                                                      ; : C 1 o o / ; : x                                                       ",
"                                                        + B.) o o $ p 7                                                         ",
"                                                        /.n # o o # s M.                                                        ",
"                                                        N.V # o o # V O.                                                        ",
"                                                        ] &.# o o # &.]                                                         ",
"                                                        R % h o o @ g R                                                         ",
"                                                      J.3 P.4 o o 4 0 3 2.                                                      ",
"                                                        p =.x o o x H.o                                                         ",
"                                                          Q.B s G J Q.                                                          ",
"                                                      '.L.{   R.S.  { L.'.                                                      ",
"                                                      p # d  .!.!. .d # p                                                       ",
"                                                        A.$.< o o L $.+.T.                                                      ",
"                                                          u m F }.c.u                                                           ",
"                                                          M.>.!.- P M.                                                          ",
"                                                          ; B 2.2.Z C                                                           ",
"                                                          Z y     M.n                                                           ",
"                                                            U.    S.                                                            ",
"                                                                                                                                ",
"                                                                                                                                ",
"                                                                                                                                ",
"                                                                                                                                ",
"                                                                                                                                ",
"                                                                                                                                ",
"                                                                                                                                ",
"                                                                                                                                "};
